{
	"asset":{
		"generator":"Khronos glTF Blender I/O v4.2.69",
		"version":"2.0"
	},
	"extensionsUsed":[
		"KHR_materials_specular"
	],
	"scene":0,
	"scenes":[
		{
			"name":"Scene",
			"nodes":[
				2
			]
		}
	],
	"nodes":[
		{
			"name":"PROP_BASE",
			"rotation":[
				-0.5000001192092896,
				-0.4999999403953552,
				-0.4999999403953552,
				0.5000000596046448
			]
		},
		{
			"mesh":0,
			"name":"PROP.smd",
			"skin":0
		},
		{
			"children":[
				1,
				0
			],
			"name":"PROP_Ellen_Joe_ARM"
		}
	],
	"materials":[
		{
			"doubleSided":true,
			"extensions":{
				"KHR_materials_specular":{
					"specularFactor":0.5625
				}
			},
			"name":"PROP_Ellen_Joe",
			"normalTexture":{
				"index":0
			},
			"pbrMetallicRoughness":{
				"baseColorTexture":{
					"index":1
				},
				"metallicRoughnessTexture":{
					"index":2
				}
			}
		}
	],
	"meshes":[
		{
			"name":"Ellen_Joe\\ZZZ\\rstar\\Ellen_Joe\\prop\\PROP_Ellen_Joe.mdl_PROP_PROP",
			"primitives":[
				{
					"attributes":{
						"POSITION":0,
						"NORMAL":1,
						"TEXCOORD_0":2,
						"JOINTS_0":3,
						"WEIGHTS_0":4
					},
					"indices":5,
					"material":0
				}
			]
		}
	],
	"textures":[
		{
			"sampler":0,
			"source":0
		},
		{
			"sampler":0,
			"source":1
		},
		{
			"sampler":0,
			"source":2
		}
	],
	"images":[
		{
			"mimeType":"image/png",
			"name":"normal",
			"uri":"normal.png"
		},
		{
			"mimeType":"image/png",
			"name":"PROP_Ellen_Joe",
			"uri":"PROP_Ellen_Joe.png"
		},
		{
			"mimeType":"image/png",
			"name":"phong_exp",
			"uri":"phong_exp.png"
		}
	],
	"skins":[
		{
			"inverseBindMatrices":6,
			"joints":[
				0
			],
			"name":"PROP_Ellen_Joe_ARM"
		}
	],
	"accessors":[
		{
			"bufferView":0,
			"componentType":5126,
			"count":4230,
			"max":[
				0.8689141273498535,
				0.03890431299805641,
				0.11696279048919678
			],
			"min":[
				-0.6531285047531128,
				-0.04171799495816231,
				-0.18879781663417816
			],
			"type":"VEC3"
		},
		{
			"bufferView":1,
			"componentType":5126,
			"count":4230,
			"type":"VEC3"
		},
		{
			"bufferView":2,
			"componentType":5126,
			"count":4230,
			"type":"VEC2"
		},
		{
			"bufferView":3,
			"componentType":5121,
			"count":4230,
			"type":"VEC4"
		},
		{
			"bufferView":4,
			"componentType":5126,
			"count":4230,
			"type":"VEC4"
		},
		{
			"bufferView":5,
			"componentType":5123,
			"count":12789,
			"type":"SCALAR"
		},
		{
			"bufferView":6,
			"componentType":5126,
			"count":1,
			"type":"MAT4"
		}
	],
	"bufferViews":[
		{
			"buffer":0,
			"byteLength":50760,
			"byteOffset":0,
			"target":34962
		},
		{
			"buffer":0,
			"byteLength":50760,
			"byteOffset":50760,
			"target":34962
		},
		{
			"buffer":0,
			"byteLength":33840,
			"byteOffset":101520,
			"target":34962
		},
		{
			"buffer":0,
			"byteLength":16920,
			"byteOffset":135360,
			"target":34962
		},
		{
			"buffer":0,
			"byteLength":67680,
			"byteOffset":152280,
			"target":34962
		},
		{
			"buffer":0,
			"byteLength":25578,
			"byteOffset":219960,
			"target":34963
		},
		{
			"buffer":0,
			"byteLength":64,
			"byteOffset":245540
		}
	],
	"samplers":[
		{
			"magFilter":9729,
			"minFilter":9987
		}
	],
	"buffers":[
		{
			"byteLength":245604,
			"uri":"weapon.ellen.joe.bin"
		}
	]
}
